X Lossless Decoder version 20110417 (131.0)

XLD extraction logfile from 2011-05-02 06:42:53 +0900

Kraftwerk / Kraftwerk 1

Used drive : MATSHITA DVD-R   UJ-868 (revision KB19)

Ripper mode             : CDParanoia III 10.2
Disable audio cache     : OK for the drive with a cache less than 2750KiB
Make use of C2 pointers : NO
Read offset correction  : 102
Max retry count         : 100
Gap status              : Analyzed, Appended

TOC of the extracted CD
     Track |   Start  |  Length  | Start sector | End sector 
    ---------------------------------------------------------
        1  | 00:00:00 | 07:50:00 |         0    |    35249   
        2  | 07:50:00 | 12:10:00 |     35250    |    89999   
        3  | 20:00:00 | 09:33:00 |     90000    |   132974   
        4  | 29:33:00 | 10:02:05 |    132975    |   178129   

AccurateRip Summary
    Track 01 : NG
    Track 02 : NG
    Track 03 : NG
    Track 04 : NG
        ->0 track(s) accurately ripped, 4 track(s) not, 0 track(s) not found

All Tracks
    Filename : /Users/m4c/Public/flac/Kraftwerk 1.flac
    CRC32 hash             : 5C5D8657
    CRC32 hash (skip zero) : C4D58557
    Statistics
        Read error                           : 0
        Skipped (treated as error)           : 0
        Edge jitter error (maybe fixed)      : 2
        Atom jitter error (maybe fixed)      : 1
        Drift error (maybe fixed)            : 0
        Dropped bytes error (maybe fixed)    : 2
        Duplicated bytes error (maybe fixed) : 1

Track 01
    Pre-gap length : 00:02:00

    CRC32 hash             : B067E428
    CRC32 hash (skip zero) : 77B3B0A6
    AccurateRip signature  : F93E1DD3
        ->Rip may not be accurate.
    Statistics
        Read error                           : 0
        Skipped (treated as error)           : 0
        Edge jitter error (maybe fixed)      : 1
        Atom jitter error (maybe fixed)      : 0
        Drift error (maybe fixed)            : 0
        Dropped bytes error (maybe fixed)    : 1
        Duplicated bytes error (maybe fixed) : 0

Track 02
    Pre-gap length : 00:01:49

    CRC32 hash             : 878036A3
    CRC32 hash (skip zero) : 5C09C4B3
    AccurateRip signature  : 01BF863A
        ->Rip may not be accurate.
    Statistics
        Read error                           : 0
        Skipped (treated as error)           : 0
        Edge jitter error (maybe fixed)      : 0
        Atom jitter error (maybe fixed)      : 0
        Drift error (maybe fixed)            : 0
        Dropped bytes error (maybe fixed)    : 0
        Duplicated bytes error (maybe fixed) : 0

Track 03
    Pre-gap length : 00:01:69

    CRC32 hash             : 4BF334CD
    CRC32 hash (skip zero) : 06C29BED
    AccurateRip signature  : 82A7DABF
        ->Rip may not be accurate.
    Statistics
        Read error                           : 0
        Skipped (treated as error)           : 0
        Edge jitter error (maybe fixed)      : 1
        Atom jitter error (maybe fixed)      : 1
        Drift error (maybe fixed)            : 0
        Dropped bytes error (maybe fixed)    : 1
        Duplicated bytes error (maybe fixed) : 1

Track 04
    Pre-gap length : 00:01:49

    CRC32 hash             : 27AD6394
    CRC32 hash (skip zero) : A4294D9C
    AccurateRip signature  : 5ECB01D8
        ->Rip may not be accurate.
    Statistics
        Read error                           : 0
        Skipped (treated as error)           : 0
        Edge jitter error (maybe fixed)      : 0
        Atom jitter error (maybe fixed)      : 0
        Drift error (maybe fixed)            : 0
        Dropped bytes error (maybe fixed)    : 0
        Duplicated bytes error (maybe fixed) : 0

No errors occurred

End of status report
